<svg xmlns="http://www.w3.org/2000/svg" viewBox="0 0 680 680" width="32" height="32">
  <circle cx="340" cy="340" r="300" fill="#166534"/>
  <circle cx="340" cy="340" r="270" fill="none" stroke="#22c55e" stroke-width="1.5" opacity="0.4"/>
  <polygon points="340,100 560,220 560,460 340,580 120,460 120,220" fill="none" stroke="#4ade80" stroke-width="1.2" opacity="0.35"/>
  <rect x="255" y="220" width="170" height="220" rx="6" fill="#f0fdf4" opacity="0.97"/>
  <line x1="340" y1="224" x2="340" y2="436" stroke="#166534" stroke-width="1" opacity="0.3"/>
  <line x1="272" y1="265" x2="332" y2="265" stroke="#166534" stroke-width="2.2" stroke-linecap="round" opacity="0.55"/>
  <line x1="272" y1="282" x2="330" y2="282" stroke="#166534" stroke-width="1.6" stroke-linecap="round" opacity="0.4"/>
  <line x1="272" y1="298" x2="333" y2="298" stroke="#166534" stroke-width="1.6" stroke-linecap="round" opacity="0.4"/>
  <line x1="272" y1="314" x2="328" y2="314" stroke="#166534" stroke-width="1.6" stroke-linecap="round" opacity="0.4"/>
  <line x1="272" y1="330" x2="332" y2="330" stroke="#166534" stroke-width="1.6" stroke-linecap="round" opacity="0.4"/>
  <line x1="272" y1="346" x2="327" y2="346" stroke="#166534" stroke-width="1.6" stroke-linecap="round" opacity="0.4"/>
  <line x1="272" y1="362" x2="331" y2="362" stroke="#166534" stroke-width="1.6" stroke-linecap="round" opacity="0.4"/>
  <line x1="272" y1="378" x2="329" y2="378" stroke="#166534" stroke-width="1.6" stroke-linecap="round" opacity="0.4"/>
  <line x1="272" y1="394" x2="333" y2="394" stroke="#166534" stroke-width="1.6" stroke-linecap="round" opacity="0.4"/>
  <line x1="350" y1="265" x2="408" y2="265" stroke="#166534" stroke-width="2.2" stroke-linecap="round" opacity="0.55"/>
  <line x1="350" y1="282" x2="406" y2="282" stroke="#166534" stroke-width="1.6" stroke-linecap="round" opacity="0.4"/>
  <line x1="350" y1="298" x2="408" y2="298" stroke="#166534" stroke-width="1.6" stroke-linecap="round" opacity="0.4"/>
  <line x1="350" y1="314" x2="405" y2="314" stroke="#166534" stroke-width="1.6" stroke-linecap="round" opacity="0.4"/>
  <line x1="350" y1="330" x2="407" y2="330" stroke="#166534" stroke-width="1.6" stroke-linecap="round" opacity="0.4"/>
  <line x1="350" y1="346" x2="404" y2="346" stroke="#166534" stroke-width="1.6" stroke-linecap="round" opacity="0.4"/>
  <line x1="350" y1="362" x2="408" y2="362" stroke="#166534" stroke-width="1.6" stroke-linecap="round" opacity="0.4"/>
  <line x1="350" y1="378" x2="405" y2="378" stroke="#166534" stroke-width="1.6" stroke-linecap="round" opacity="0.4"/>
  <line x1="350" y1="394" x2="407" y2="394" stroke="#166534" stroke-width="1.6" stroke-linecap="round" opacity="0.4"/>
  <rect x="255" y="220" width="170" height="220" rx="6" fill="none" stroke="#22c55e" stroke-width="2"/>
  <path d="M220 310 Q205 340 220 370" fill="none" stroke="#86efac" stroke-width="3" stroke-linecap="round"/>
  <path d="M200 295 Q178 340 200 385" fill="none" stroke="#86efac" stroke-width="2.5" stroke-linecap="round" opacity="0.7"/>
  <path d="M180 280 Q150 340 180 400" fill="none" stroke="#86efac" stroke-width="2" stroke-linecap="round" opacity="0.4"/>
  <path d="M460 310 Q475 340 460 370" fill="none" stroke="#86efac" stroke-width="3" stroke-linecap="round"/>
  <path d="M480 295 Q502 340 480 385" fill="none" stroke="#86efac" stroke-width="2.5" stroke-linecap="round" opacity="0.7"/>
  <path d="M500 280 Q530 340 500 400" fill="none" stroke="#86efac" stroke-width="2" stroke-linecap="round" opacity="0.4"/>
  <circle cx="340" cy="195" r="10" fill="#4ade80"/>
  <circle cx="340" cy="195" r="6" fill="#166534"/>
  <text x="340" y="510" text-anchor="middle" font-family="serif" font-size="28" fill="#f0fdf4" font-weight="700">إذاعة القرآن الكريم</text>
</svg>